<?xml version="1.0" encoding="utf-8"?><svg viewBox="0 0 100 100" xmlns="http://www.w3.org/2000/svg" xmlns:xlink="http://www.w3.org/1999/xlink"><style>:root>svg{display:none}:root>svg:target{display:block}</style><svg fill="none" viewBox="0 0 24 24" id="icon-facebook" xmlns="http://www.w3.org/2000/svg"><path d="M13.397 20.997V12.8h2.765l.411-3.21h-3.176V7.549c0-.926.258-1.56 1.587-1.56h1.684V3.127c-.82-.088-1.643-.13-2.467-.127-2.444 0-4.122 1.492-4.122 4.23v2.356H7.332v3.209h2.753v8.202h3.312z" fill="#fff"/></svg><svg fill="none" viewBox="0 0 24 24" id="icon-instagram" xmlns="http://www.w3.org/2000/svg"><path d="M16.5 0h-9A7.5 7.5 0 000 7.5v9A7.5 7.5 0 007.5 24h9a7.5 7.5 0 007.5-7.5v-9A7.5 7.5 0 0016.5 0zm5.25 16.5a5.256 5.256 0 01-5.25 5.25h-9a5.256 5.256 0 01-5.25-5.25v-9A5.256 5.256 0 017.5 2.25h9a5.256 5.256 0 015.25 5.25v9z" fill="#fff"/><path d="M12 6a6 6 0 100 12 6 6 0 000-12zm0 9.75A3.755 3.755 0 018.25 12 3.754 3.754 0 0112 8.25 3.754 3.754 0 0115.75 12 3.755 3.755 0 0112 15.75zM18.448 6.35a.8.8 0 100-1.599.8.8 0 000 1.599z" fill="#fff"/></svg><svg fill="none" viewBox="0 0 24 24" id="icon-vk" xmlns="http://www.w3.org/2000/svg"><g clip-path="url(#cclip0_0_127)"><path fill-rule="evenodd" clip-rule="evenodd" d="M21.362 14.758s1.94 1.916 2.42 2.803a.15.15 0 01.022.042c.196.327.244.584.148.774-.162.313-.71.47-.896.483h-3.43c-.239 0-.736-.062-1.34-.48-.462-.322-.922-.854-1.367-1.373-.665-.772-1.24-1.442-1.822-1.442a.656.656 0 00-.216.036c-.44.14-1 .767-1 2.439 0 .523-.412.82-.701.82h-1.571c-.535 0-3.322-.187-5.793-2.792C2.79 12.878.07 6.48.043 6.424c-.169-.414.186-.64.57-.64h3.463c.465 0 .616.28.722.533.122.289.576 1.446 1.32 2.745 1.204 2.115 1.945 2.975 2.536 2.975.112 0 .22-.028.317-.084.773-.425.629-3.185.593-3.753 0-.11-.001-1.233-.397-1.775-.283-.389-.766-.54-1.057-.595.078-.113.243-.286.456-.388.529-.264 1.485-.302 2.434-.302h.527c1.03.014 1.296.08 1.67.175.754.18.769.668.703 2.331-.02.476-.04 1.01-.04 1.64 0 .135-.006.285-.006.438-.023.853-.053 1.814.55 2.209a.492.492 0 00.26.074c.209 0 .834 0 2.53-2.91.744-1.285 1.32-2.8 1.36-2.915.033-.063.134-.242.256-.314a.575.575 0 01.283-.067h4.074c.444 0 .745.067.804.235.099.272-.019 1.104-1.879 3.62-.313.418-.588.78-.83 1.097-1.685 2.213-1.685 2.325.1 4.005z" fill="#fff"/></g><defs><clipPath id="cclip0_0_127"><path fill="#fff" d="M0 0h24v24H0z"/></clipPath></defs></svg><svg fill="none" viewBox="0 0 24 24" id="icon-youtube" xmlns="http://www.w3.org/2000/svg"><path d="M22.058 6.945a2.625 2.625 0 00-1.853-1.852C18.57 4.65 12 4.65 12 4.65s-6.57 0-8.205.443a2.625 2.625 0 00-1.853 1.852A27.097 27.097 0 001.5 12c-.011 1.695.137 3.388.442 5.055a2.625 2.625 0 001.853 1.853C5.43 19.35 12 19.35 12 19.35s6.57 0 8.205-.442a2.625 2.625 0 001.853-1.853A27.1 27.1 0 0022.5 12a27.1 27.1 0 00-.442-5.055zM9.9 15.15v-6.3L15.352 12 9.9 15.15z" fill="#fff"/></svg><svg fill="none" viewBox="0 0 91 45" id="loading__icon" xmlns="http://www.w3.org/2000/svg"><path fill-rule="evenodd" clip-rule="evenodd" d="M45.197 14.34c-17.076 0-30.919 13.535-30.919 30.232H.008C.008 20.17 20.24.387 45.198.387c24.957 0 45.189 19.782 45.189 44.185h-14.27c0-16.697-13.844-30.232-30.92-30.232z" fill="url(#epaint0_linear_0_92)"/><defs><linearGradient id="epaint0_linear_0_92" x1="10.971" y1=".387" x2="89.497" y2="13.818" gradientUnits="userSpaceOnUse"><stop stop-color="#DF5950"/><stop offset="1" stop-color="#451046"/></linearGradient></defs></svg><svg fill="none" viewBox="0 0 100 100" id="main__icon-1" xmlns="http://www.w3.org/2000/svg"><path d="M9.375 20.313H6.25V12.5h7.813v3.125H9.375v4.688z" fill="url(#fpaint0_linear_0_199)"/><path d="M65.625 81.25H62.5v-3.125h3.125v3.125zm-6.25 0H56.25v-3.125h3.125v3.125zm-6.25 0H50v-3.125h3.125v3.125zm-6.25 0H43.75v-3.125h3.125v3.125zm-6.25 0H37.5v-3.125h3.125v3.125zm-6.25 0H31.25v-3.125h3.125v3.125zm-6.25 0H25v-3.125h3.125v3.125zm-6.25 0H18.75v-3.125h3.125v3.125zm-6.25 0H12.5v-3.125h3.125v3.125zm-6.25 0H6.25v-3.125h3.125v3.125z" fill="url(#fpaint1_linear_0_199)"/><path d="M65.625 87.5H62.5v-3.125h3.125V87.5zm-6.25 0H56.25v-3.125h3.125V87.5zm-6.25 0H50v-3.125h3.125V87.5zm-6.25 0H43.75v-3.125h3.125V87.5zm-6.25 0H37.5v-3.125h3.125V87.5zm-6.25 0H31.25v-3.125h3.125V87.5zm-6.25 0H25v-3.125h3.125V87.5zm-6.25 0H18.75v-3.125h3.125V87.5zm-6.25 0H12.5v-3.125h3.125V87.5zm-6.25 0H6.25v-3.125h3.125V87.5z" fill="url(#fpaint2_linear_0_199)"/><path d="M81.25 12.5h12.5v3.125h-12.5V12.5z" fill="url(#fpaint3_linear_0_199)"/><path d="M81.25 18.75h12.5v3.125h-12.5V18.75z" fill="url(#fpaint4_linear_0_199)"/><path d="M81.25 25h12.5v3.125h-12.5V25z" fill="url(#fpaint5_linear_0_199)"/><path d="M65.625 34.375h-7.813V31.25H62.5v-4.688h3.125v7.813z" fill="url(#fpaint6_linear_0_199)"/><path d="M95.313 6.25H79.686A4.688 4.688 0 0075 10.938v54.687h25V10.937a4.688 4.688 0 00-4.688-4.687zm1.562 56.25h-18.75V10.937c0-.862.7-1.562 1.563-1.562h15.624c.863 0 1.563.7 1.563 1.563V62.5z" fill="url(#fpaint7_linear_0_199)"/><path d="M67.188 71.875h-62.5A4.688 4.688 0 000 76.563v12.5a4.688 4.688 0 004.688 4.687h62.5a4.688 4.688 0 004.687-4.688v-12.5a4.688 4.688 0 00-4.688-4.687zm1.562 17.188c0 .862-.7 1.562-1.563 1.562h-62.5c-.862 0-1.562-.7-1.562-1.563v-12.5c0-.862.7-1.562 1.563-1.562h62.5c.862 0 1.562.7 1.562 1.563v12.5z" fill="url(#fpaint8_linear_0_199)"/><path d="M85.938 71.875a7.822 7.822 0 00-7.813 7.813v6.25a7.813 7.813 0 0015.625 0v-6.25a7.822 7.822 0 00-7.813-7.813zm4.687 14.063a4.688 4.688 0 01-9.375 0v-6.25a4.688 4.688 0 013.125-4.4v5.962H87.5v-5.962a4.688 4.688 0 013.125 4.4v6.25z" fill="url(#fpaint9_linear_0_199)"/><path d="M67.188 6.25h-62.5A4.688 4.688 0 000 10.938v37.5a4.688 4.688 0 004.688 4.687h21.875v6.51a2.867 2.867 0 01-2.865 2.865H18.75v3.125H50V62.5h-4.948a2.867 2.867 0 01-2.864-2.864v-6.511h25a4.688 4.688 0 004.687-4.688v-37.5a4.688 4.688 0 00-4.688-4.687zM28.956 62.5c.48-.878.732-1.863.73-2.864v-6.511h3.125v6.64h3.126v-6.64h3.124v6.51a5.946 5.946 0 00.731 2.865H28.957zM68.75 48.437c0 .863-.7 1.563-1.563 1.563h-62.5c-.862 0-1.562-.7-1.562-1.563v-7.812H68.75v7.813zm0-10.937H3.125V10.937c0-.862.7-1.562 1.563-1.562h62.5c.862 0 1.562.7 1.562 1.563V37.5z" fill="url(#fpaint10_linear_0_199)"/><path d="M89.062 47.097V43.75h-3.125v3.347a6.25 6.25 0 103.125 0zM87.5 56.25a3.115 3.115 0 01-1.563-5.816v2.691h3.125v-2.69A3.117 3.117 0 0187.5 56.25z" fill="url(#fpaint11_linear_0_199)"/><path d="M32.813 43.75h3.124v3.125h-3.124V43.75z" fill="url(#fpaint12_linear_0_199)"/><defs><linearGradient id="fpaint0_linear_0_199" x1="7.049" y1="12.5" x2="13.787" y2="13.002" gradientUnits="userSpaceOnUse"><stop stop-color="#C89AFC"/><stop offset="1" stop-color="#7C6AFA"/></linearGradient><linearGradient id="fpaint1_linear_0_199" x1="12.319" y1="78.125" x2="29.453" y2="102.391" gradientUnits="userSpaceOnUse"><stop stop-color="#C89AFC"/><stop offset="1" stop-color="#7C6AFA"/></linearGradient><linearGradient id="fpaint2_linear_0_199" x1="12.319" y1="84.375" x2="29.453" y2="108.641" gradientUnits="userSpaceOnUse"><stop stop-color="#C89AFC"/><stop offset="1" stop-color="#7C6AFA"/></linearGradient><linearGradient id="fpaint3_linear_0_199" x1="82.528" y1="12.5" x2="92.484" y2="15.469" gradientUnits="userSpaceOnUse"><stop stop-color="#C89AFC"/><stop offset="1" stop-color="#7C6AFA"/></linearGradient><linearGradient id="fpaint4_linear_0_199" x1="82.528" y1="18.75" x2="92.484" y2="21.719" gradientUnits="userSpaceOnUse"><stop stop-color="#C89AFC"/><stop offset="1" stop-color="#7C6AFA"/></linearGradient><linearGradient id="fpaint5_linear_0_199" x1="82.528" y1="25" x2="92.484" y2="27.969" gradientUnits="userSpaceOnUse"><stop stop-color="#C89AFC"/><stop offset="1" stop-color="#7C6AFA"/></linearGradient><linearGradient id="fpaint6_linear_0_199" x1="58.611" y1="26.563" x2="65.35" y2="27.065" gradientUnits="userSpaceOnUse"><stop stop-color="#C89AFC"/><stop offset="1" stop-color="#7C6AFA"/></linearGradient><linearGradient id="fpaint7_linear_0_199" x1="77.555" y1="6.25" x2="99.218" y2="6.93" gradientUnits="userSpaceOnUse"><stop stop-color="#C89AFC"/><stop offset="1" stop-color="#7C6AFA"/></linearGradient><linearGradient id="fpaint8_linear_0_199" x1="7.346" y1="71.875" x2="66.16" y2="86.279" gradientUnits="userSpaceOnUse"><stop stop-color="#C89AFC"/><stop offset="1" stop-color="#7C6AFA"/></linearGradient><linearGradient id="fpaint9_linear_0_199" x1="79.722" y1="71.875" x2="93.236" y2="72.594" gradientUnits="userSpaceOnUse"><stop stop-color="#C89AFC"/><stop offset="1" stop-color="#7C6AFA"/></linearGradient><linearGradient id="fpaint10_linear_0_199" x1="7.346" y1="6.25" x2="69.184" y2="11.83" gradientUnits="userSpaceOnUse"><stop stop-color="#C89AFC"/><stop offset="1" stop-color="#7C6AFA"/></linearGradient><linearGradient id="fpaint11_linear_0_199" x1="82.527" y1="43.75" x2="93.332" y2="44.393" gradientUnits="userSpaceOnUse"><stop stop-color="#C89AFC"/><stop offset="1" stop-color="#7C6AFA"/></linearGradient><linearGradient id="fpaint12_linear_0_199" x1="33.132" y1="43.75" x2="35.827" y2="43.951" gradientUnits="userSpaceOnUse"><stop stop-color="#C89AFC"/><stop offset="1" stop-color="#7C6AFA"/></linearGradient></defs></svg><svg fill="none" viewBox="0 0 100 100" id="main__icon-2" xmlns="http://www.w3.org/2000/svg"><path d="M43.75 6.25h3.125v12.5H43.75V6.25z" fill="url(#gpaint0_linear_0_213)"/><path d="M53.125 6.25h3.125v12.5h-3.125V6.25z" fill="url(#gpaint1_linear_0_213)"/><path d="M65.625 21.875V0h-31.25v21.875h-6.25V100h43.75V21.875h-6.25zM37.5 3.125h25v18.75h-25V3.125zm31.25 93.75h-37.5V25h37.5v71.875z" fill="url(#gpaint2_linear_0_213)"/><path d="M37.5 62.212v9.13l10.937 4.688v5.508a4.688 4.688 0 103.125 0V70.213L62.5 60.056v-6.931h3.125V43.75H56.25v9.375h3.125v5.567l-7.813 7.256V37.11l3.058 3.058 2.21-2.21-6.83-6.83-6.83 6.83 2.21 2.21 3.057-3.058v35.522l-7.812-3.349v-7.07a4.687 4.687 0 10-3.125 0zm21.875-15.337H62.5V50h-3.125v-3.125zM50 84.375a1.563 1.563 0 110 3.125 1.563 1.563 0 010-3.125zM39.062 56.25a1.563 1.563 0 110 3.125 1.563 1.563 0 010-3.125z" fill="url(#gpaint3_linear_0_213)"/><defs><linearGradient id="gpaint0_linear_0_213" x1="44.069" y1="6.25" x2="46.779" y2="6.3" gradientUnits="userSpaceOnUse"><stop stop-color="#C89AFC"/><stop offset="1" stop-color="#7C6AFA"/></linearGradient><linearGradient id="gpaint1_linear_0_213" x1="53.444" y1="6.25" x2="56.154" y2="6.3" gradientUnits="userSpaceOnUse"><stop stop-color="#C89AFC"/><stop offset="1" stop-color="#7C6AFA"/></linearGradient><linearGradient id="gpaint2_linear_0_213" x1="32.597" y1="0" x2="70.503" y2="1.236" gradientUnits="userSpaceOnUse"><stop stop-color="#C89AFC"/><stop offset="1" stop-color="#7C6AFA"/></linearGradient><linearGradient id="gpaint3_linear_0_213" x1="37.568" y1="31.128" x2="64.632" y2="32.187" gradientUnits="userSpaceOnUse"><stop stop-color="#C89AFC"/><stop offset="1" stop-color="#7C6AFA"/></linearGradient></defs></svg><svg fill="none" viewBox="0 0 100 100" id="main__icon-3" xmlns="http://www.w3.org/2000/svg"><path d="M9.375 9.375H12.5V12.5H9.375V9.375z" fill="url(#hpaint0_linear_0_218)"/><path d="M9.375 15.625H12.5v3.125H9.375v-3.125z" fill="url(#hpaint1_linear_0_218)"/><path d="M87.5 81.25h3.125v3.125H87.5V81.25z" fill="url(#hpaint2_linear_0_218)"/><path d="M87.5 87.5h3.125v3.125H87.5V87.5z" fill="url(#hpaint3_linear_0_218)"/><path d="M84.375 71.875H60.937a4.688 4.688 0 00-4.687 4.688v4.687h-9.375v3.125H19.531c-9.06 0-16.406-7.346-16.406-16.406 0-9.06 7.346-16.406 16.406-16.406H80.47C91.255 51.563 100 42.818 100 32.03 100 21.245 91.255 12.5 80.469 12.5H53.125V9.375H43.75V4.687A4.688 4.688 0 0039.062 0H15.625v3.125H0V25h15.625v3.125h23.438a4.688 4.688 0 004.687-4.688V18.75h9.375v-3.125h27.344c9.06 0 16.406 7.346 16.406 16.406 0 9.06-7.346 16.407-16.406 16.407H19.53C8.745 48.438 0 57.181 0 67.968 0 78.756 8.745 87.5 19.531 87.5h27.344v3.125h9.375v4.688A4.688 4.688 0 0060.938 100h23.437v-3.125H100V75H84.375v-3.125zm-68.75-50h-12.5V6.25h12.5v15.625zm25-12.5v14.063c0 .862-.7 1.562-1.563 1.562H18.75V3.125h20.313c.862 0 1.562.7 1.562 1.563v4.687zM50 15.625h-6.25V12.5H50v3.125zM56.25 87.5H50v-3.125h6.25V87.5zm25 9.375H60.937c-.862 0-1.562-.7-1.562-1.563v-18.75c0-.862.7-1.562 1.563-1.562H81.25v21.875zm15.625-18.75V93.75h-12.5V78.125h12.5z" fill="url(#hpaint4_linear_0_218)"/><defs><linearGradient id="hpaint0_linear_0_218" x1="9.694" y1="9.375" x2="12.39" y2="9.576" gradientUnits="userSpaceOnUse"><stop stop-color="#C89AFC"/><stop offset="1" stop-color="#7C6AFA"/></linearGradient><linearGradient id="hpaint1_linear_0_218" x1="9.694" y1="15.625" x2="12.39" y2="15.826" gradientUnits="userSpaceOnUse"><stop stop-color="#C89AFC"/><stop offset="1" stop-color="#7C6AFA"/></linearGradient><linearGradient id="hpaint2_linear_0_218" x1="87.819" y1="81.25" x2="90.515" y2="81.451" gradientUnits="userSpaceOnUse"><stop stop-color="#C89AFC"/><stop offset="1" stop-color="#7C6AFA"/></linearGradient><linearGradient id="hpaint3_linear_0_218" x1="87.819" y1="87.5" x2="90.515" y2="87.701" gradientUnits="userSpaceOnUse"><stop stop-color="#C89AFC"/><stop offset="1" stop-color="#7C6AFA"/></linearGradient><linearGradient id="hpaint4_linear_0_218" x1="10.221" y1="0" x2="96.477" y2="6.429" gradientUnits="userSpaceOnUse"><stop stop-color="#C89AFC"/><stop offset="1" stop-color="#7C6AFA"/></linearGradient></defs></svg></svg>