<svg width="22" height="16" viewBox="0 0 22 16" fill="none" xmlns="http://www.w3.org/2000/svg">
<path d="M21.0575 2.94515C20.938 2.50118 20.704 2.09638 20.3789 1.77127C20.0538 1.44616 19.649 1.21215 19.205 1.09265C17.57 0.650147 11 0.650146 11 0.650146C11 0.650146 4.42999 0.650147 2.79499 1.09265C2.35102 1.21215 1.94623 1.44616 1.62112 1.77127C1.29601 2.09638 1.06199 2.50118 0.942492 2.94515C0.637201 4.6126 0.489052 6.30501 0.499992 8.00014C0.489052 9.69528 0.637201 11.3877 0.942492 13.0551C1.06199 13.4991 1.29601 13.9039 1.62112 14.229C1.94623 14.5541 2.35102 14.7881 2.79499 14.9076C4.42999 15.3501 11 15.3501 11 15.3501C11 15.3501 17.57 15.3501 19.205 14.9076C19.649 14.7881 20.0538 14.5541 20.3789 14.229C20.704 13.9039 20.938 13.4991 21.0575 13.0551C21.3628 11.3877 21.5109 9.69528 21.5 8.00014C21.5109 6.30501 21.3628 4.6126 21.0575 2.94515ZM8.89999 11.1501V4.85015L14.3525 8.00014L8.89999 11.1501Z" fill="white"/>
</svg>
